<?xml version="1.0" standalone="no"?>
<!DOCTYPE svg PUBLIC "-//W3C//DTD SVG 1.1//EN" "http://www.w3.org/Graphics/SVG/1.1/DTD/svg11.dtd">
<svg width="50mm" height="55mm" viewBox="-45 -50 50 55" xmlns="http://www.w3.org/2000/svg" version="1.1">
<title>OpenSCAD Model</title>
<path d="
M 4.99013,-0.31395 L 4.96057,-0.626663 L 4.91142,-0.936905 L 4.84291,-1.24344 L 4.75528,-1.54507 L 4.64888,-1.84062
 L 4.52412,-2.12889 L 4.38153,-2.40877 L 4.22163,-2.67912 L 4.04507,-2.93892 L 3.85255,-3.18712 L 3.64484,-3.42273
 L 3.42273,-3.64484 L 3.18712,-3.85255 L 2.93892,-4.04507 L 2.67912,-4.22163 L 2.5,-4.32758 L 2.5,-47.5
 L -5.46448,-47.5 L -6.5,-48.5355 L -10,-45.0355 L -10,-50 L -30,-50 L -30,-45.0355
 L -33.5,-48.5355 L -34.5355,-47.5 L -42.5,-47.5 L -42.5,-4.32758 L -42.6791,-4.22163 L -42.9389,-4.04507
 L -43.1871,-3.85255 L -43.4227,-3.64484 L -43.6448,-3.42273 L -43.8526,-3.18712 L -44.0451,-2.93892 L -44.2216,-2.67912
 L -44.3815,-2.40877 L -44.5241,-2.12889 L -44.6489,-1.84062 L -44.7553,-1.54507 L -44.8429,-1.24344 L -44.9114,-0.936905
 L -44.9606,-0.626663 L -44.9901,-0.31395 L -45,-0 L -44.9901,0.31395 L -44.9606,0.626663 L -44.9114,0.936905
 L -44.8429,1.24344 L -44.7553,1.54507 L -44.6489,1.84062 L -44.5241,2.12889 L -44.3815,2.40877 L -44.2216,2.67912
 L -44.0451,2.93892 L -43.8526,3.18712 L -43.6448,3.42273 L -43.4227,3.64484 L -43.1871,3.85255 L -42.9389,4.04507
 L -42.6791,4.22163 L -42.4088,4.38153 L -42.1289,4.52412 L -41.8406,4.64888 L -41.5451,4.75528 L -41.2434,4.84291
 L -40.9369,4.91142 L -40.6267,4.96057 L -40.3139,4.99013 L -40,5 L -39.686,4.99013 L -39.3733,4.96057
 L -39.0631,4.91142 L -38.7565,4.84291 L -38.4549,4.75528 L -38.1594,4.64888 L -37.8711,4.52412 L -37.5912,4.38153
 L -37.3209,4.22163 L -37.0611,4.04507 L -36.8129,3.85255 L -36.5773,3.64484 L -36.3551,3.42273 L -36.1474,3.18712
 L -35.9549,2.93892 L -35.7784,2.67912 L -35.6185,2.40877 L -35.4759,2.12889 L -35.3511,1.84062 L -35.2447,1.54507
 L -35.1571,1.24344 L -35.0886,0.936905 L -35.0394,0.626663 L -35.0099,0.31395 L -35,-0 L -35.0099,-0.31395
 L -35.0394,-0.626663 L -35.0886,-0.936905 L -35.1571,-1.24344 L -35.2447,-1.54507 L -35.3511,-1.84062 L -35.4759,-2.12889
 L -35.6185,-2.40877 L -35.7784,-2.67912 L -35.9549,-2.93892 L -36.1474,-3.18712 L -36.3551,-3.42273 L -36.5773,-3.64484
 L -36.8129,-3.85255 L -37.0611,-4.04507 L -37.3209,-4.22163 L -37.5,-4.32758 L -37.5,-42.5 L -34.5355,-42.5
 L -33.5,-41.4645 L -30,-44.9645 L -30,-40 L -20.0355,-40 L -23.5355,-36.5 L -22.5,-35.4645
 L -22.5,-4.32758 L -22.6791,-4.22163 L -22.9389,-4.04507 L -23.1871,-3.85255 L -23.4227,-3.64484 L -23.6448,-3.42273
 L -23.8526,-3.18712 L -24.0451,-2.93892 L -24.2216,-2.67912 L -24.3815,-2.40877 L -24.5241,-2.12889 L -24.6489,-1.84062
 L -24.7553,-1.54507 L -24.8429,-1.24344 L -24.9114,-0.936905 L -24.9606,-0.626663 L -24.9901,-0.31395 L -25,-0
 L -24.9901,0.31395 L -24.9606,0.626663 L -24.9114,0.936905 L -24.8429,1.24344 L -24.7553,1.54507 L -24.6489,1.84062
 L -24.5241,2.12889 L -24.3815,2.40877 L -24.2216,2.67912 L -24.0451,2.93892 L -23.8526,3.18712 L -23.6448,3.42273
 L -23.4227,3.64484 L -23.1871,3.85255 L -22.9389,4.04507 L -22.6791,4.22163 L -22.4088,4.38153 L -22.1289,4.52412
 L -21.8406,4.64888 L -21.5451,4.75528 L -21.2434,4.84291 L -20.9369,4.91142 L -20.6267,4.96057 L -20.3139,4.99013
 L -20,5 L -19.686,4.99013 L -19.3733,4.96057 L -19.0631,4.91142 L -18.7565,4.84291 L -18.4549,4.75528
 L -18.1594,4.64888 L -17.8711,4.52412 L -17.5912,4.38153 L -17.3209,4.22163 L -17.0611,4.04507 L -16.8129,3.85255
 L -16.5773,3.64484 L -16.3551,3.42273 L -16.1474,3.18712 L -15.9549,2.93892 L -15.7784,2.67912 L -15.6185,2.40877
 L -15.4759,2.12889 L -15.3511,1.84062 L -15.2447,1.54507 L -15.1571,1.24344 L -15.0886,0.936905 L -15.0394,0.626663
 L -15.0099,0.31395 L -15,-0 L -15.0099,-0.31395 L -15.0394,-0.626663 L -15.0886,-0.936905 L -15.1571,-1.24344
 L -15.2447,-1.54507 L -15.3511,-1.84062 L -15.4759,-2.12889 L -15.6185,-2.40877 L -15.7784,-2.67912 L -15.9549,-2.93892
 L -16.1474,-3.18712 L -16.3551,-3.42273 L -16.5773,-3.64484 L -16.8129,-3.85255 L -17.0611,-4.04507 L -17.3209,-4.22163
 L -17.5,-4.32758 L -17.5,-35.4645 L -16.4645,-36.5 L -19.9645,-40 L -10,-40 L -10,-44.9645
 L -6.5,-41.4645 L -5.46448,-42.5 L -2.5,-42.5 L -2.5,-4.32758 L -2.67912,-4.22163 L -2.93892,-4.04507
 L -3.18712,-3.85255 L -3.42273,-3.64484 L -3.64484,-3.42273 L -3.85255,-3.18712 L -4.04507,-2.93892 L -4.22163,-2.67912
 L -4.38153,-2.40877 L -4.52412,-2.12889 L -4.64888,-1.84062 L -4.75528,-1.54507 L -4.84291,-1.24344 L -4.91142,-0.936905
 L -4.96057,-0.626663 L -4.99013,-0.31395 L -5,-0 L -4.99013,0.31395 L -4.96057,0.626663 L -4.91142,0.936905
 L -4.84291,1.24344 L -4.75528,1.54507 L -4.64888,1.84062 L -4.52412,2.12889 L -4.38153,2.40877 L -4.22163,2.67912
 L -4.04507,2.93892 L -3.85255,3.18712 L -3.64484,3.42273 L -3.42273,3.64484 L -3.18712,3.85255 L -2.93892,4.04507
 L -2.67912,4.22163 L -2.40877,4.38153 L -2.12889,4.52412 L -1.84062,4.64888 L -1.54507,4.75528 L -1.24344,4.84291
 L -0.936905,4.91142 L -0.626663,4.96057 L -0.31395,4.99013 L 0,5 L 0.31395,4.99013 L 0.626663,4.96057
 L 0.936905,4.91142 L 1.24344,4.84291 L 1.54507,4.75528 L 1.84062,4.64888 L 2.12889,4.52412 L 2.40877,4.38153
 L 2.67912,4.22163 L 2.93892,4.04507 L 3.18712,3.85255 L 3.42273,3.64484 L 3.64484,3.42273 L 3.85255,3.18712
 L 4.04507,2.93892 L 4.22163,2.67912 L 4.38153,2.40877 L 4.52412,2.12889 L 4.64888,1.84062 L 4.75528,1.54507
 L 4.84291,1.24344 L 4.91142,0.936905 L 4.96057,0.626663 L 4.99013,0.31395 L 5,-0 z
" stroke="black" fill="lightgray" stroke-width="0.5"/>
</svg>
